<svg
                        xmlns="http://www.w3.org/2000/svg"
                        width="24"
                        height="24"
                        viewBox="0 0 24 24"
                        aria-hidden="true"
                        role="img"
                      >
                        <!-- green chat bubble -->
                        <path
                          fill="#25D366"
                          d="M12 2C6.48 2 2 6.48 2 12c0 1.94.57 3.74 1.55 5.27L4 22l4.87-1.28C10.35 21.06 11.17 21 12 21c5.52 0 10-4.48 10-10S17.52 2 12 2z"
                        />
                        <!-- white phone handset inside the bubble -->
                        <path
                          fill="#FFFFFF"
                          d="M16.02 14.14c-.26-.13-1.54-.76-1.78-.85-.23-.09-.39-.13-.56.12-.17.26-.66.86-.81 1.05-.16.19-.33.21-.6.07-.27-.14-1.09-.44-2.07-1.41-.78-.77-1.31-1.66-1.47-1.94-.15-.27-.01-.42.11-.55.12-.12.27-.32.41-.48.14-.16.19-.27.28-.45.09-.18.05-.34-.02-.48-.07-.14-.61-1.48-.84-2.02-.22-.55-.45-.47-.62-.48-.17-.01-.37-.01-.56-.01-.19 0-.49.07-.75.36-.26.29-.99 1-0.99 2.45 0 1.44 1.03 3.07 1.17 3.27.14.2 2.03 3.09 4.9 4.33 1.92.78 2.78.85 3.01.79.23-.06 1.43-.59 1.64-1.17.22-.59.22-1.08.16-1.18-.07-.1-.25-.16-.52-.3z"
                        />
                      </svg>